<?xml version="1.0" encoding="UTF-8"?>
<svg xmlns="http://www.w3.org/2000/svg" viewBox="0 0 1180 230">
  <g>
    <path d="m6.58,84.05c-1.05-4.35,1.8-6.9,6.15-6.9h29.1c4.2,0,5.7,2.25,6.45,6.6,1.2,6,5.4,9.3,10.5,9.3s9.75-3,9.75-9.15c0-23.7-61.65-6.3-60.45-50.85C8.53,13.86,30.13,3.51,56.38,3.51c28.05,0,44.7,11.25,49.65,28.2,1.35,4.5-1.35,7.2-5.85,7.2h-27c-4.2,0-5.55-2.25-6.3-6.6-1.05-5.55-4.95-9.15-10.5-9.15-6.3,0-9.9,3.9-9.9,9.9,0,22.05,64.35,7.65,63.15,50.85-.45,18.9-19.35,28.8-47.4,28.8-31.65,0-51.45-9.75-55.65-28.65Z" />
    <path d="m122.23,6.06h24.9c4.2,0,6.6,2.4,6.6,6.6v51.15c0,16.65,2.85,25.95,14.1,25.95,12.3,0,14.4-9.3,14.4-25.95V12.66c0-4.2,2.4-6.6,6.6-6.6h24.9c4.2,0,6.6,2.4,6.6,6.6v39.3c0,48.45-15,60.3-52.5,60.3s-51.9-11.85-51.75-60.3l-.45-39.3c0-4.2,2.4-6.6,6.6-6.6Z" />
    <path d="m233.08,103.85V12.06c0-4.2,2.4-6.6,6.6-6.6h42.45c34.65,0,55.95,7.05,55.95,33.45,0,15.15-6.3,25.35-19.05,31.2-1.95,1.05-2.55,2.55-1.35,4.5l18.6,27.9c3,4.5,1.05,7.95-4.35,7.95h-22.8c-3.45,0-6-1.35-7.95-4.35l-17.85-27.15c-.9-1.5-2.1-2.1-3.9-2.1l-3.6.15c-2.1,0-3.3,1.2-3.3,3.3v23.55c0,4.2-2.4,6.6-6.6,6.6h-26.25c-4.2,0-6.6-2.4-6.6-6.6Zm42.75-47.85h4.8c16.2,0,22.65-6.45,22.65-14.4,0-8.55-3.75-14.7-22.65-14.7h-4.8c-2.1,0-3.3,1.2-3.3,3.3v22.5c0,2.1,1.2,3.3,3.3,3.3Z" />
    <path d="m425.97,12.06v10.2c0,4.2-2.4,6.6-6.6,6.6l-31.35-.3c-2.1,0-3.3,1.2-3.3,3.3v10.95c0,2.1,1.2,3.3,3.3,3.3l24-.3c4.2,0,6.6,2.4,6.6,6.6v7.2c0,4.2-2.4,6.6-6.6,6.6l-24-.3c-2.1,0-3.3,1.2-3.3,3.3v34.65c0,4.2-2.4,6.6-6.6,6.6h-23.25c-4.2,0-6.6-2.4-6.6-6.6V12.06c0-4.2,2.4-6.6,6.6-6.6h64.5c4.2,0,6.6,2.4,6.6,6.6Z" />
    <path d="m464.98,57.06c0-27.15,10.35-53.55,60.9-53.55,32.25,0,46.05,10.8,52.65,24.75,2.1,4.35-.3,7.5-5.25,7.5h-28.2c-3.9,0-5.55-1.95-7.35-5.4-2.25-4.35-6.6-7.2-11.85-7.2-16.35,0-18.6,14.7-18.6,33.9s4.2,35.1,17.7,35.1c11.7,0,16.65-6.75,17.4-17.4.15-2.25-1.05-3.45-3.15-3.45h-7.2c-4.2,0-6.6-2.4-6.6-6.6v-7.2c0-4.2,2.4-6.6,6.6-6.6h46.65c4.2,0,6.6,1.5,6.6,4.5.75,31.65-9.9,57-59.4,57-45.9,0-60.9-23.4-60.9-55.35Z" />
    <path d="m673.02,105.2l-3.15-8.7c-.6-1.8-2.1-2.55-3.9-2.55h-39.3c-1.8,0-3.15.9-3.75,2.7l-3.15,8.55c-1.35,3.6-3.75,5.25-7.5,5.25h-18.6c-4.95,0-7.05-3.15-5.1-7.65l39.45-92.25c1.5-3.45,3.9-5.1,7.65-5.1h34.35c3.75,0,6.15,1.5,7.65,5.1l38.4,92.25c1.95,4.5-.15,7.65-5.1,7.65h-30.45c-3.75,0-6.15-1.65-7.5-5.25Zm-37.2-33.15h20.85c2.4,0,3.45-1.35,2.55-3.75l-10.95-29.55c-1.05-3-3.3-3-4.35,0l-10.8,29.55c-.75,2.25.3,3.75,2.7,3.75Z" />
    <path d="m726.43,103.85V12.06c0-4.2,2.4-6.6,6.6-6.6h42.45c34.65,0,55.95,7.05,55.95,33.45,0,15.15-6.3,25.35-19.05,31.2-1.95,1.05-2.55,2.55-1.35,4.5l18.6,27.9c3,4.5,1.05,7.95-4.35,7.95h-22.8c-3.45,0-6-1.35-7.95-4.35l-17.85-27.15c-.9-1.5-2.1-2.1-3.9-2.1l-3.6.15c-2.1,0-3.3,1.2-3.3,3.3v23.55c0,4.2-2.4,6.6-6.6,6.6h-26.25c-4.2,0-6.6-2.4-6.6-6.6Zm42.75-47.85h4.8c16.2,0,22.65-6.45,22.65-14.4,0-8.55-3.75-14.7-22.65-14.7h-4.8c-2.1,0-3.3,1.2-3.3,3.3v22.5c0,2.1,1.2,3.3,3.3,3.3Z" />
    <path d="m923.38,105.2l-3.15-8.7c-.6-1.8-2.1-2.55-3.9-2.55h-39.3c-1.8,0-3.15.9-3.75,2.7l-3.15,8.55c-1.35,3.6-3.75,5.25-7.5,5.25h-18.6c-4.95,0-7.05-3.15-5.1-7.65l39.45-92.25c1.5-3.45,3.9-5.1,7.65-5.1h34.35c3.75,0,6.15,1.5,7.65,5.1l38.4,92.25c1.95,4.5-.15,7.65-5.1,7.65h-30.45c-3.75,0-6.15-1.65-7.5-5.25Zm-37.2-33.15h20.85c2.4,0,3.45-1.35,2.55-3.75l-10.95-29.55c-1.05-3-3.3-3-4.35,0l-10.8,29.55c-.75,2.25.3,3.75,2.7,3.75Z" />
    <path d="m965.83,57.06c0-27.15,10.35-53.55,60.9-53.55,32.25,0,46.05,10.8,52.65,24.75,2.1,4.35-.3,7.5-5.25,7.5h-28.2c-3.9,0-5.55-1.95-7.35-5.4-2.25-4.35-6.6-7.2-11.85-7.2-16.35,0-18.6,14.7-18.6,33.9s4.2,35.1,17.7,35.1c11.7,0,16.65-6.75,17.4-17.4.15-2.25-1.05-3.45-3.15-3.45h-7.2c-4.2,0-6.6-2.4-6.6-6.6v-7.2c0-4.2,2.4-6.6,6.6-6.6h46.65c4.2,0,6.6,1.5,6.6,4.5.75,31.65-9.9,57-59.4,57-45.9,0-60.9-23.4-60.9-55.35Z" />
    <path d="m1095.88,103.85V12.06c0-4.2,2.4-6.6,6.6-6.6h64.5c4.2,0,6.6,2.4,6.6,6.6v10.2c0,4.2-2.4,6.6-6.6,6.6l-31.35-.3c-2.1,0-3.3,1.2-3.3,3.3v10.8c0,2.1,1.2,3.3,3.3,3.3l24-.3c4.2,0,6.6,2.4,6.6,6.6v7.2c0,4.2-2.4,6.6-6.6,6.6l-24-.3c-2.1,0-3.3,1.2-3.3,3.3v15c0,2.1,1.2,3.3,3.3,3.3l31.35-.3c4.2,0,6.6,2.4,6.6,6.6v10.2c0,4.2-2.4,6.6-6.6,6.6h-64.5c-4.2,0-6.6-2.4-6.6-6.6Z" />
  </g>
  <g>
    <path d="m44.86,225.08l-2.9-11.4c-.2-1-.8-1.4-1.7-1.4h-16.5c-.9,0-1.5.4-1.7,1.4l-2.8,11.4c-.4,1.7-1.5,2.6-3.3,2.6h-5.2c-2.1,0-3.1-1.3-2.6-3.3l16.6-64.1c.4-1.7,1.6-2.6,3.4-2.6h12.4c1.8,0,3,.9,3.4,2.6l16.2,64.1c.5,2-.5,3.3-2.6,3.3h-9.4c-1.8,0-2.9-.8-3.3-2.6Zm-18.4-22.4h11.1c1.1,0,1.7-.7,1.4-1.8l-6.1-24.7c-.4-1.5-1.6-1.4-2,.1l-5.8,24.6c-.3,1.1.3,1.8,1.4,1.8Z" />
    <path d="m106.75,224.68v-64c0-1.9,1.1-3,3-3h17.5c15.4,0,24.5,7.7,24.5,22.3,0,8.7-2.9,15.3-8.7,19.2-.9.6-1.1,1.3-.7,2.2l10.1,22.8c.9,2.1-.1,3.5-2.3,3.5h-7.8c-1.7,0-2.8-.8-3.5-2.3l-9.1-20.7c-.4-.8-.8-1.2-1.4-1.2h-.9l-4.6.1c-1,0-1.6.6-1.6,1.6v19.5c0,1.9-1.1,3-3,3h-8.5c-1.9,0-3-1.1-3-3Zm16.1-30.1h4.4c7.2,0,11.6-6.3,11.6-14.6,0-6.8-3.4-13-11.6-13h-4.4c-1,0-1.6.6-1.6,1.6v24.4c0,1,.6,1.6,1.6,1.6Z" />
    <path d="m240.56,160.68v3.5c0,1.9-1.1,3-3,3l-10.9-.2c-1,0-1.6.6-1.6,1.6v56.1c0,1.9-1.1,3-3,3h-8.3c-1.9,0-3-1.1-3-3v-56.1c0-1-.6-1.6-1.6-1.6l-10.9.2c-1.9,0-3-1.1-3-3v-3.5c0-1.9,1.1-3,3-3h39.3c1.9,0,3,1.1,3,3Z" />
    <path d="m350.15,191.58c0-19.2,8.6-35.2,27.1-35.2,13.9,0,24.4,9.6,26.7,25.2.3,2-.9,3.2-2.9,3.2h-9.9c-1.9,0-2.9-1-3.1-3-.8-9.8-4.9-17.3-10.8-17.3-8.5,0-10.4,16.8-10.4,27.1s2,28.9,10.4,28.9c6.3,0,10.4-10.5,11.2-18.7.2-1.9,1.1-2.9,3-2.9l10.1.1c2,0,3.1,1.1,2.8,3.1-1.9,14.2-12.3,26.9-27.1,26.9-18.5,0-27.1-17.7-27.1-37.4Z" />
    <path d="m451.25,191.58c0-19.2,8.2-35.2,26.7-35.2,17.5,0,27.4,16,27.4,35.2s-9.9,37.4-27.4,37.4c-18.5,0-26.7-17.7-26.7-37.4Zm26.7,28.9c8.4,0,11.6-18.8,11.6-28.9s-3.2-27.1-11.6-27.1-10.4,16.8-10.4,27.1,2,28.9,10.4,28.9Z" />
    <path d="m553.15,224.68v-64c0-1.9,1.1-3,3-3h8.3c1.9,0,3,1.1,3,3v56.2c0,1,.6,1.6,1.6,1.6l13.9-.3c1.9,0,3,1,3,2.9v3.6c0,1.9-1.1,3-3,3h-26.8c-1.9,0-3-1.1-3-3Z" />
    <path d="m632.25,224.68v-64c0-1.9,1.1-3,3-3h8.3c1.9,0,3,1.1,3,3v56.2c0,1,.6,1.6,1.6,1.6l13.9-.3c1.9,0,3,1,3,2.9v3.6c0,1.9-1.1,3-3,3h-26.8c-1.9,0-3-1.1-3-3Z" />
    <path d="m711.35,224.68v-64c0-1.9,1.1-3,3-3h26.8c1.9,0,3,1.1,3,3v3.6c0,1.9-1.1,3-3,3l-13.9-.2c-1,0-1.6.6-1.6,1.6v14.9c0,1,.6,1.6,1.6,1.6l9-.1c1.9,0,3,1.1,3,3v3.6c0,1.9-1.1,3-3,3l-9-.1c-1,0-1.6.6-1.6,1.6v20.5c0,1,.6,1.6,1.6,1.6l13.9-.2c1.9,0,3,1.1,3,3v3.6c0,1.9-1.1,3-3,3h-26.8c-1.9,0-3-1.1-3-3Z" />
    <path d="m787.95,191.58c0-19.2,8.6-35.2,27.1-35.2,13.9,0,24.4,9.6,26.7,25.2.3,2-.9,3.2-2.9,3.2h-9.9c-1.9,0-2.9-1-3.1-3-.8-9.8-4.9-17.3-10.8-17.3-8.5,0-10.4,16.8-10.4,27.1s2,28.9,10.4,28.9c6.3,0,10.4-10.5,11.2-18.7.2-1.9,1.1-2.9,3-2.9l10.1.1c2,0,3.1,1.1,2.8,3.1-1.9,14.2-12.3,26.9-27.1,26.9-18.5,0-27.1-17.7-27.1-37.4Z" />
    <path d="m927.56,160.68v3.5c0,1.9-1.1,3-3,3l-10.9-.2c-1,0-1.6.6-1.6,1.6v56.1c0,1.9-1.1,3-3,3h-8.3c-1.9,0-3-1.1-3-3v-56.1c0-1-.6-1.6-1.6-1.6l-10.9.2c-1.9,0-3-1.1-3-3v-3.5c0-1.9,1.1-3,3-3h39.3c1.9,0,3,1.1,3,3Z" />
    <path d="m973.85,224.68v-64c0-1.9,1.1-3,3-3h8.3c1.9,0,3,1.1,3,3v64c0,1.9-1.1,3-3,3h-8.3c-1.9,0-3-1.1-3-3Z" />
    <path d="m1050.55,160.28l12,48.9c.4,1.5,1.6,1.4,2-.1l11.6-48.8c.4-1.7,1.5-2.6,3.3-2.6h5.2c2.1,0,3.1,1.3,2.6,3.3l-16.6,64.1c-.4,1.7-1.6,2.6-3.4,2.6h-12.4c-1.8,0-3-.9-3.4-2.6l-16.2-64.1c-.5-2,.5-3.3,2.6-3.3h9.4c1.8,0,2.9.8,3.3,2.6Z" />
    <path d="m1133.95,224.68v-64c0-1.9,1.1-3,3-3h26.8c1.9,0,3,1.1,3,3v3.6c0,1.9-1.1,3-3,3l-13.9-.2c-1,0-1.6.6-1.6,1.6v14.9c0,1,.6,1.6,1.6,1.6l9-.1c1.9,0,3,1.1,3,3v3.6c0,1.9-1.1,3-3,3l-9-.1c-1,0-1.6.6-1.6,1.6v20.5c0,1,.6,1.6,1.6,1.6l13.9-.2c1.9,0,3,1.1,3,3v3.6c0,1.9-1.1,3-3,3h-26.8c-1.9,0-3-1.1-3-3Z" />
  </g>
</svg>
