<svg xmlns="http://www.w3.org/2000/svg" viewBox="0 0 48 48" width="40" height="40">
  <path fill="#d6e5e5" d="M3.227 44.894c.072-.141.067-.927.11-1.083.085-.306.203-.608.311-.905.104-.287.208-.551.277-.847.074-.32.209-.598.314-.906.092-.269.192-.525.248-.804.025-.125.111-.232.13-.355.02-.129.022-.261.046-.393.045-.25.086-.496.137-.749.05-.254.166-.493.205-.749.067-.436.17-.868.259-1.302.096-.464.151-.917.246-1.384.154-.752-.158-1.055-.385-1.74a36.662 36.662 0 0 1-.674-2.276 32.24 32.24 0 0 1-.869-4.672c-.335-3.101-.171-6.282.746-9.275.238-.776.525-1.537.863-2.275 1.493-3.264 3.94-6.029 6.759-8.252 2.399-1.892 5.137-3.44 8.134-4.034 3.297-.653 6.734-.117 9.929.927 3.941 1.288 7.689 3.399 10.413 6.525 2.199 2.524 3.671 5.653 4.341 8.933 1.602 7.842-1.709 16.474-8.143 21.234-4.493 3.324-10.341 4.636-15.847 3.83a21.026 21.026 0 0 1-4.38-1.128 21.712 21.712 0 0 1-2.081-.926c-.754-.38-1.269-.007-2.054.187-.953.235-1.867.589-2.825.864-.217.062-.424.152-.648.212-.145.039-.321.062-.461.113-.114.042-.183.099-.309.118-.472.07-.932.24-1.402.341-.506.109-.984.305-1.499.373-.307.041-.664.075-.96.163-.176.052-.348.115-.529.151-.106.022-.309.021-.402.084.014-.001.131-.002.146-.004"/>
  <path fill="#010101" d="M3.227 45.394a.5.5 0 0 1-.466-.682c.022-.105.028-.306.039-.488.015-.281.024-.432.056-.545.072-.262.167-.52.261-.774l.114-.311c.078-.215.155-.42.207-.646.055-.234.136-.447.22-.663.037-.096.075-.193.109-.293l.057-.163c.066-.191.134-.377.174-.578.024-.119.069-.214.102-.284a.757.757 0 0 0 .041-.199c.008-.084.017-.168.031-.253l.139-.758c.027-.138.069-.27.112-.402.035-.108.072-.215.09-.327.049-.323.117-.644.187-.964l.076-.363c.047-.227.084-.451.121-.676.039-.234.077-.469.126-.708.08-.391-.005-.587-.159-.945-.069-.161-.144-.333-.211-.538a38.3 38.3 0 0 1-.683-2.306 32.71 32.71 0 0 1-.883-4.745c-.37-3.423-.112-6.611.765-9.476.248-.805.546-1.591.887-2.336 1.42-3.104 3.742-5.943 6.903-8.436 2.785-2.196 5.594-3.586 8.346-4.131 3.015-.598 6.439-.281 10.182.942 4.41 1.441 8.088 3.748 10.635 6.671 2.207 2.533 3.747 5.701 4.454 9.162 1.652 8.091-1.697 16.826-8.335 21.736-4.516 3.341-10.425 4.769-16.217 3.923a21.507 21.507 0 0 1-4.484-1.155 22.151 22.151 0 0 1-2.129-.947c-.371-.187-.616-.118-1.138.055-.179.059-.366.121-.572.171-.546.135-1.079.31-1.615.486-.394.129-.788.258-1.19.374-.091.026-.179.058-.269.089-.127.045-.256.09-.39.125-.064.018-.135.032-.206.047-.073.015-.148.029-.213.052-.139.065-.25.119-.404.142-.262.039-.517.111-.771.182-.199.055-.399.11-.601.154-.195.042-.386.098-.576.153-.305.089-.62.181-.963.227l-.169.022c-.238.03-.495.06-.715.125l-.146.045c-.141.044-.282.088-.428.117l-.09.014a.5.5 0 0 1-.214.073 2.999 2.999 0 0 1-.136.004l-.061.001zM23.074 3.11c-1.005 0-1.971.091-2.893.274-2.596.515-5.261 1.839-7.921 3.936C9.225 9.714 7 12.429 5.647 15.387a18.258 18.258 0 0 0-.841 2.214c-.837 2.733-1.082 5.787-.727 9.075.161 1.493.449 3.041.855 4.6.198.755.422 1.51.665 2.245.058.173.121.32.18.456.179.415.364.843.222 1.542-.047.226-.083.449-.12.67-.039.237-.078.475-.128.715l-.078.372c-.064.301-.13.602-.176.904a2.96 2.96 0 0 1-.128.487c-.03.095-.063.189-.082.286l-.135.742c-.01.053-.015.109-.02.166a4.917 4.917 0 0 1-.024.216c-.021.132-.07.239-.107.317a8.113 8.113 0 0 1-.237.767l-.054.156c-.039.114-.082.224-.124.332-.066.171-.134.34-.177.525a6.189 6.189 0 0 1-.243.765l-.114.314c-.085.229-.171.459-.236.694-.007.047-.012.168-.019.303l.054-.017.163-.05c.283-.083.597-.123.873-.158l.162-.021c.268-.036.533-.113.814-.195.213-.062.427-.124.646-.171.183-.04.363-.09.544-.14.296-.082.591-.162.891-.207.102-.048.152-.071.211-.093a2.64 2.64 0 0 1 .351-.092l.151-.034c.109-.029.213-.066.316-.103.107-.038.214-.075.323-.107.392-.112.774-.238 1.156-.363a23.501 23.501 0 0 1 1.688-.506c.18-.044.343-.099.498-.15.537-.178 1.147-.378 1.9.002a21.13 21.13 0 0 0 2.033.905c1.362.515 2.801.886 4.275 1.102 5.531.81 11.173-.552 15.477-3.737 6.232-4.611 9.502-13.136 7.95-20.732-.672-3.292-2.134-6.302-4.228-8.705C37.618 7.89 34.094 5.685 29.856 4.3c-2.416-.793-4.686-1.19-6.782-1.19z"/>
  <path fill="#38b47b" d="M9.692 33.81c-.007-.556-.306-1.103-.537-1.587-.734-1.532-1.141-3.196-1.544-4.846-.314-1.289-.63-2.586-.724-3.909-.325-4.605 2.091-9.028 5.268-12.378.768-.809 1.593-1.581 2.564-2.13 1.02-.576 2.165-.887 3.296-1.192 2.495-.673 5.032-1.351 7.616-1.3.893.018 1.8.127 2.617.488.644.285 1.21.716 1.803 1.097.972.624 2.022 1.116 3.01 1.715 1.902 1.153 3.466 2.682 4.79 4.457.267.357.617.582.891.925.351.441.602.992.808 1.512.421 1.068.63 2.207.82 3.334.304 1.802.609 3.627.462 5.449-.09 1.12-.35 2.219-.654 3.3-.435 1.544-.967 3.073-1.779 4.456-1.284 2.188-3.238 3.943-5.448 5.189-2.21 1.246-4.672 2.002-7.171 2.441-.817.144-1.642.255-2.472.274-1.785.04-3.55-.352-5.23-.931a51.91 51.91 0 0 1-2.189-.822c-.314-.124-.631-.262-.903-.466-.061-.046-.857-.67-.781-.688a59.962 59.962 0 0 0-6.445 1.987c0-.614.449-1.457.631-2.048l.663-2.15c.19-.616.508-1.282.617-1.908.016-.089.022-.18.021-.269z"/>
  <path fill="#010101" d="M23.057 41.609c-1.579 0-3.265-.315-5.141-.961a52.913 52.913 0 0 1-2.21-.83c-.319-.127-.688-.283-1.019-.53a8.978 8.978 0 0 1-.657-.529 60.225 60.225 0 0 0-6.097 1.896.5.5 0 0 1-.673-.469c0-.514.23-1.094.435-1.606.083-.21.164-.412.219-.589l.663-2.15c.071-.232.159-.47.249-.711.143-.384.291-.781.353-1.135.01-.06.015-.12.014-.179-.005-.383-.211-.806-.409-1.214l-.079-.163c-.76-1.584-1.176-3.292-1.578-4.942-.314-1.289-.64-2.622-.737-3.993-.403-5.717 3.213-10.447 5.405-12.757.714-.753 1.591-1.605 2.681-2.221 1.079-.61 2.265-.93 3.412-1.239 2.497-.673 5.084-1.373 7.756-1.317 1.148.022 2.041.19 2.809.531.519.229.98.539 1.427.838.147.1.296.199.445.294.522.336 1.086.642 1.631.938.46.25.92.5 1.367.771 1.855 1.125 3.469 2.625 4.932 4.585.122.163.265.292.406.422.165.153.329.307.476.49.414.521.689 1.15.882 1.641.435 1.102.649 2.253.848 3.434.305 1.806.621 3.674.468 5.572-.101 1.255-.411 2.474-.671 3.396-.546 1.938-1.109 3.348-1.83 4.574-1.259 2.145-3.206 4.002-5.633 5.372-2.067 1.166-4.533 2.006-7.33 2.498-.997.175-1.807.265-2.548.281l-.266.002zm-8.413-3.652c.146.137.548.458.643.53.233.174.529.298.789.401.716.284 1.438.563 2.167.814 1.866.643 3.508.946 5.057.904.698-.016 1.438-.098 2.396-.266 2.686-.473 5.044-1.275 7.013-2.384 2.272-1.282 4.093-3.014 5.262-5.007.675-1.149 1.208-2.487 1.729-4.338.248-.878.544-2.036.638-3.205.143-1.775-.163-3.58-.458-5.326-.189-1.127-.393-2.222-.791-3.233-.168-.426-.403-.969-.734-1.384-.113-.142-.243-.26-.372-.379-.169-.156-.361-.333-.528-.559-1.386-1.855-2.906-3.271-4.649-4.328-.434-.263-.88-.505-1.326-.748a25.965 25.965 0 0 1-1.694-.975c-.154-.1-.309-.203-.462-.306-.429-.289-.835-.561-1.273-.754-.643-.285-1.413-.426-2.424-.445-2.533-.059-5.048.628-7.477 1.283-1.087.293-2.21.596-3.18 1.144-.976.551-1.784 1.34-2.448 2.039-2.078 2.191-5.509 6.663-5.132 11.999.091 1.286.406 2.577.71 3.826.391 1.602.795 3.257 1.51 4.748l.075.157c.236.484.503 1.032.511 1.64v.001c.001.12-.008.241-.029.361-.076.445-.241.886-.399 1.313-.087.22-.169.44-.236.654l-.663 2.15c-.061.2-.15.427-.245.665-.059.148-.121.304-.177.458a59.846 59.846 0 0 1 5.639-1.693.49.49 0 0 1 .558.243z"/>
  <path fill="#d6e5e5" d="M34.483 28.654c-.241-.207-.562-.254-.86-.333-.363-.096-.701-.251-1.049-.392a17.921 17.921 0 0 1-2.283-1.117c-.279-.162-.568-.336-.891-.356-.65-.04-1.154.539-1.515 1.08-.361.542-.771 1.157-1.414 1.259-.275.044-.555-.017-.823-.092-2.127-.591-3.931-2.03-5.355-3.677-.461-.533-.888-1.115-1.123-1.786-.25-.714-.254-1.547.143-2.19.244-.395.638-.735.674-1.197.03-.374-.176-.764-.299-1.109l-.45-1.258-.887-2.479c-.054-.15-.112-.308-.233-.412-.153-.132-.371-.149-.573-.159-.745-.04-1.553-.063-2.165.365-.363.254-.611.64-.827 1.027-.684 1.231-1.349 2.783-1.259 4.217.091 1.45.957 2.857 1.79 4.005.873 1.203 1.926 2.264 3.034 3.251.443.395.897.778 1.357 1.154 2.769 2.266 5.796 4.387 9.282 5.196 1.197.278 2.469.391 3.643.03 1.909-.587 2.961-2.381 2.453-4.334-.063-.241-.153-.484-.331-.658l-.039-.035z"/>
  <path fill="#010101" d="M30.791 34.409c-.658 0-1.371-.09-2.148-.27-3.707-.861-6.875-3.16-9.484-5.296a43.81 43.81 0 0 1-1.373-1.168c-1.33-1.186-2.317-2.245-3.105-3.331-.824-1.135-1.783-2.646-1.885-4.267-.079-1.281.353-2.75 1.322-4.491.229-.412.523-.877.977-1.194.778-.545 1.762-.491 2.478-.455.219.012.583.031.873.28.225.193.317.451.378.623l1.421 3.955c.123.308.275.692.242 1.1-.036.47-.299.814-.529 1.117-.076.1-.153.199-.217.303-.286.462-.322 1.121-.098 1.762.227.646.669 1.208 1.029 1.624 1.588 1.836 3.308 3.021 5.11 3.522.21.059.431.105.611.08.425-.067.755-.562 1.074-1.04.227-.341.902-1.38 1.964-1.305.429.027.776.229 1.082.406.736.428 1.483.793 2.248 1.102l.222.091c.252.105.503.211.768.281l.146.037c.277.067.622.151.912.401l.06.054c.284.277.403.642.469.893.568 2.188-.604 4.265-2.79 4.938a5.988 5.988 0 0 1-1.757.248zM16.937 14.917c-.499 0-.935.06-1.271.294-.285.199-.493.531-.675.86-.861 1.548-1.265 2.875-1.198 3.944.085 1.363.951 2.716 1.695 3.742.745 1.026 1.687 2.034 2.963 3.171.438.391.886.77 1.34 1.142 2.521 2.063 5.571 4.281 9.078 5.096 1.345.312 2.453.325 3.383.039 1.683-.518 2.553-2.052 2.116-3.73-.034-.135-.093-.325-.195-.426l.31-.394-.326.379c-.107-.093-.287-.136-.495-.187l-.167-.042a7.092 7.092 0 0 1-.896-.324l-.213-.088a18.595 18.595 0 0 1-2.347-1.147c-.26-.151-.478-.277-.671-.29-.291-.015-.674.268-1.067.858-.399.599-.895 1.341-1.752 1.476-.37.059-.718-.015-1.035-.104-1.996-.555-3.88-1.844-5.599-3.832-.419-.484-.936-1.143-1.217-1.948-.323-.923-.253-1.901.189-2.618a5.47 5.47 0 0 1 .272-.384c.169-.221.314-.412.329-.59.014-.176-.082-.417-.175-.651l-1.434-3.988c-.021-.057-.063-.174-.09-.202-.039-.026-.209-.035-.272-.039-.2-.009-.395-.017-.58-.017z"/>
</svg>
